# xmcd
#
# Track frame offsets:
# 150
# 11274
# 28326
# 42112
# 55106
# 59110
# 68202
# 77357
# 82268
# 93219
# 98951
# 99883
# 114921
# 129312
# 131927
# 143331
# 158122
# 160877
#
# Disc length: 2376 seconds
#
#
# Revision: 0
# Processed by: cddbd v1.5.2PL0 Copyright (c) Steve Scherf et al.
# Submitted via: FreeRIP 2.942 
#
DISCID=e2094612
DTITLE=Blade - Guerilla Tactics
DYEAR=2006
DGENRE=UKHH
TTITLE0=Mumps
TTITLE1=Four Walls
TTITLE2=MC's Just Wanna Rhyme
TTITLE3=System Of A Damned
TTITLE4=Beatbox [5th element]
TTITLE5=I Found A Reason
TTITLE6=Army Of Barmy Rapprs [ft. S. Kalibre, Cipher, Manage, Respek-BA and Rukus]
TTITLE7=MC [2nd element]
TTITLE8=It's Your Time [ft. Laurissa]
TTITLE9=Don't Push Them
TTITLE10=B-Boy [3rd element]
TTITLE11=She's Gone
TTITLE12=The Massacre Begins [ft. Yogi, Humurak D. Gritty and Mystro]
TTITLE13=Graffitti [4th element]
TTITLE14=B.L.A.D.E.
TTITLE15=Round and Round [ft. Dwaine Hayden]
TTITLE16=DJ [1st Element]
TTITLE17=UK Hip-Hop
EXTD=
EXTT0=
EXTT1=
EXTT2=
EXTT3=
EXTT4=
EXTT5=
EXTT6=
EXTT7=
EXTT8=
EXTT9=
EXTT10=
EXTT11=
EXTT12=
EXTT13=
EXTT14=
EXTT15=
EXTT16=
EXTT17=
PLAYORDER=
